<?xml version="1.0" encoding="utf-8"?>
<!-- Generator: Adobe Illustrator 21.1.0, SVG Export Plug-In . SVG Version: 6.00 Build 0)  -->
<svg version="1.1" id="Layer_1" xmlns="http://www.w3.org/2000/svg" xmlns:xlink="http://www.w3.org/1999/xlink" x="0px" y="0px"
	 viewBox="0 0 246 85" style="enable-background:new 0 0 246 85;" xml:space="preserve">
<style type="text/css">
	.st0{fill:#D82331;}
</style>
<title>logo</title>
<g>
	<path class="st0" d="M242.1,17h-26.4l-14.4,67.8H178L192.4,17h-85L111,0h134.6L242.1,17L242.1,17z"/>
	<path class="st0" d="M159.3,51l3.5-17h-59.6l-3.5,17L159.3,51"/>
	<path class="st0" d="M45.1,17.1h9.5c7.5,0,15.3,0.8,13.2,9.4c-2.1,8.7-9.5,9.2-16.9,9.2h-9.5l-3.9,16.3h9.1
		c9.1,0,11.7,5.8,11.7,14.8c0,6.2,0.2,11.6-0.4,18.1h94.8l3.5-17H80.9c0-1,0.1-2.4,0.1-3.7c0.1-6,0.2-18.5-12-20.2l0.1-0.5
		c12.6-2.3,19.2-6.8,23.5-21.5c2.6-16.6-11.6-22-28-21.7L48.9,0L45.1,17.1z M4.3,85h5.4L28.1,0h-5.4L4.3,85z"/>
</g>
</svg>
